<svg width="110" height="110" viewBox="0 0 110 110" fill="none" xmlns="http://www.w3.org/2000/svg">
<circle cx="55" cy="55" r="55" fill="#00000B"/>
<path d="M46.1172 35.6504C46.1172 37.9355 44.4766 39.0781 41.1953 39.0781L39.4668 39.0195L37.6797 39.0781H34.8672C31.9766 39.0781 30.2383 39.3223 29.6523 39.8105C28.7539 40.5723 28.3047 42.8867 28.3047 46.7539C28.3047 47.9062 28.7832 48.6582 29.7402 49.0098C30.6973 49.3418 32.9727 49.5078 36.5664 49.5078C40.1797 49.5078 42.1816 49.6738 42.5723 50.0059C42.9824 50.3379 43.1875 51.207 43.1875 52.6133C43.1875 54.0195 42.7285 54.8691 41.8105 55.1621C41.3418 55.3184 39.291 55.3965 35.6582 55.3965C32.0449 55.3965 29.8086 55.7285 28.9492 56.3926C28.1094 57.0371 27.6895 58.8633 27.6895 61.8711C27.6895 64.8789 28.1777 66.666 29.1543 67.2324C30.1504 67.7988 32.8164 68.082 37.1523 68.082C41.4883 68.082 44.125 68.2871 45.0625 68.6973C46.0195 69.1074 46.498 70.0254 46.498 71.4512C46.498 72.6621 45.6875 73.4043 44.0664 73.6777C41.8789 74.0488 38.1777 74.2344 32.9629 74.2344H29.8574C25.6582 74.2344 23.0605 73.9512 22.0645 73.3848C20.8535 72.7012 20.248 70.3965 20.248 66.4707V61.2559C20.248 57.877 20.375 54.4102 20.6289 50.8555C20.8828 47.3008 21.0098 43.7754 21.0098 40.2793C21.0098 36.7637 21.3809 34.6738 22.123 34.0098C23.0996 33.1309 25.502 32.6914 29.3301 32.6914H35.248L36.2148 32.7207L40.0527 32.6914C42.3379 32.6914 43.9199 32.8867 44.7988 33.2773C45.6777 33.668 46.1172 34.459 46.1172 35.6504ZM55.375 33.7754C55.9219 33.3066 56.8301 33.0723 58.0996 33.0723C59.3887 33.0723 60.3066 33.4238 60.8535 34.127C61.4199 34.8301 61.7031 36.4609 61.7031 39.0195C61.7031 44.4102 61.9277 47.5645 62.377 48.4824C62.5918 48.9121 62.8457 49.127 63.1387 49.127C64.0957 49.127 66.2734 46.8613 69.6719 42.3301C73.0898 37.7793 75.209 35.1523 76.0293 34.4492C77.3184 33.3359 79.1152 32.7793 81.4199 32.7793C82.8066 32.7793 83.5 33.1602 83.5 33.9219C83.5 34.5273 81.5176 37.4082 77.5527 42.5645C73.6074 47.7012 71.6348 50.4355 71.6348 50.7676C71.6348 51.0996 72.8262 53.1797 75.209 57.0078C77.5918 60.8359 79.1543 63.3066 79.8965 64.4199L81.625 67.0273C83.9297 70.582 85.082 72.5156 85.082 72.8281C85.082 73.7266 84.0664 74.1758 82.0352 74.1758C80.0234 74.1758 78.4219 73.6094 77.2305 72.4766C76.5859 71.8516 75.1504 69.791 72.9238 66.2949C70.7168 62.7988 69.2812 60.6309 68.6172 59.791C67.0156 57.7598 65.7363 56.7441 64.7793 56.7441C63.8418 56.7441 63.0508 57.8379 62.4062 60.0254C62.1523 60.9043 62.0254 62.9648 62.0254 66.207C62.0254 69.4297 61.7715 71.5879 61.2637 72.6816C60.8535 73.541 59.7793 73.9707 58.041 73.9707C56.3223 73.9707 55.2969 73.4629 54.9648 72.4473C54.8281 72.0176 54.7598 69.1172 54.7598 63.7461V54.6348L54.7305 52.5254V47.3984L54.5547 36.8223C54.5547 35.2402 54.8281 34.2246 55.375 33.7754Z" fill="white"/>
<path d="M91.8203 69.9277C91.8203 68.7363 92.0254 67.8574 92.4355 67.291C92.8457 66.7051 93.8027 66.4121 95.3066 66.4121H96.5957C97.748 66.4121 98.5391 66.5977 98.9688 66.9688C99.3984 67.3203 99.6133 67.8379 99.6133 68.5215C99.6914 68.9121 99.7305 69.1465 99.7305 69.2246L99.8184 70.25V70.8359C99.8184 72.2031 99.623 73.1602 99.2324 73.707C98.8418 74.2539 98.1582 74.5273 97.1816 74.5273C96.9863 74.5664 96.8398 74.5859 96.7422 74.5859L96.0391 74.6445H95.1602L94.0762 74.5273C92.6309 74.5273 91.9082 73.668 91.9082 71.9492L91.8203 71.0996V69.9277Z" fill="#EC0000"/>
</svg>
